<mxfile host="app.diagrams.net" agent="Mozilla/5.0 (Windows NT 10.0; Win64; x64) AppleWebKit/537.36 (KHTML, like Gecko) Chrome/130.0.0.0 Safari/537.36" version="24.8.0">
  <diagram name="Page-1" id="0N4WF_Am87cuY9ZfUtcu">
    <mxGraphModel grid="1" page="1" gridSize="10" guides="1" tooltips="1" connect="1" arrows="1" fold="1" pageScale="1" pageWidth="850" pageHeight="1100" math="0" shadow="0">
      <root>
        <mxCell id="0" />
        <mxCell id="1" parent="0" />
        <mxCell id="gBozBJxobV5QFHehTq0j-1" value="" style="swimlane;startSize=0;" vertex="1" parent="1">
          <mxGeometry x="120" y="120" width="200" height="290" as="geometry" />
        </mxCell>
        <mxCell id="gBozBJxobV5QFHehTq0j-2" value="Ebook" style="rounded=0;whiteSpace=wrap;html=1;" vertex="1" parent="gBozBJxobV5QFHehTq0j-1">
          <mxGeometry width="200" height="30" as="geometry" />
        </mxCell>
        <mxCell id="gBozBJxobV5QFHehTq0j-3" value="# title: String&amp;nbsp;&lt;div&gt;# author: String&lt;/div&gt;&lt;div&gt;# publication_date: Date&lt;/div&gt;&lt;div&gt;# genre: String&lt;/div&gt;&lt;div&gt;# price: Float&lt;/div&gt;" style="rounded=0;whiteSpace=wrap;html=1;align=left;" vertex="1" parent="gBozBJxobV5QFHehTq0j-1">
          <mxGeometry y="30" width="200" height="90" as="geometry" />
        </mxCell>
        <mxCell id="gBozBJxobV5QFHehTq0j-4" value="&lt;font face=&quot;Helvetica&quot; style=&quot;font-size: 12px;&quot;&gt;+&amp;nbsp;&lt;span style=&quot;&quot; id=&quot;docs-internal-guid-1a1e6c46-7fff-6a24-c08f-9612e7744d96&quot;&gt;&lt;span style=&quot;background-color: transparent; font-variant-numeric: normal; font-variant-east-asian: normal; font-variant-alternates: normal; font-variant-position: normal; vertical-align: baseline; white-space-collapse: preserve;&quot;&gt;get_details()&lt;/span&gt;&lt;/span&gt;&lt;/font&gt;&lt;div style=&quot;&quot;&gt;&lt;font face=&quot;Helvetica&quot; style=&quot;font-size: 12px;&quot;&gt;&lt;span style=&quot;background-color: transparent; font-variant-numeric: normal; font-variant-east-asian: normal; font-variant-alternates: normal; font-variant-position: normal; vertical-align: baseline; white-space-collapse: preserve;&quot;&gt;+ &lt;/span&gt;&lt;span style=&quot;background-color: transparent; white-space-collapse: preserve;&quot;&gt;set_title(new_title)&lt;/span&gt;&lt;/font&gt;&lt;/div&gt;&lt;div style=&quot;&quot;&gt;&lt;font face=&quot;Helvetica&quot; style=&quot;font-size: 12px;&quot;&gt;&lt;span style=&quot;background-color: transparent; white-space-collapse: preserve;&quot;&gt;+ &lt;/span&gt;&lt;span style=&quot;background-color: transparent; white-space-collapse: preserve;&quot;&gt;get_title()&lt;/span&gt;&lt;/font&gt;&lt;/div&gt;&lt;div style=&quot;&quot;&gt;&lt;font face=&quot;Helvetica&quot; style=&quot;font-size: 12px;&quot;&gt;&lt;span style=&quot;background-color: transparent; white-space-collapse: preserve;&quot;&gt;+ &lt;/span&gt;&lt;span style=&quot;background-color: transparent; white-space-collapse: preserve;&quot;&gt;set_author(new_author)&lt;/span&gt;&lt;/font&gt;&lt;/div&gt;&lt;div style=&quot;&quot;&gt;&lt;font face=&quot;Helvetica&quot; style=&quot;font-size: 12px;&quot;&gt;&lt;span style=&quot;background-color: transparent; white-space-collapse: preserve;&quot;&gt;+ &lt;/span&gt;&lt;span style=&quot;background-color: transparent; white-space-collapse: preserve;&quot;&gt;get_author()&lt;/span&gt;&lt;/font&gt;&lt;/div&gt;&lt;div style=&quot;&quot;&gt;&lt;font face=&quot;Helvetica&quot; style=&quot;font-size: 12px;&quot;&gt;&lt;span style=&quot;background-color: transparent; white-space-collapse: preserve;&quot;&gt;+ &lt;/span&gt;&lt;span style=&quot;background-color: transparent; white-space-collapse: preserve;&quot;&gt;set_publication_date(new_date)&lt;/span&gt;&lt;/font&gt;&lt;/div&gt;&lt;div style=&quot;&quot;&gt;&lt;font face=&quot;Helvetica&quot; style=&quot;font-size: 12px;&quot;&gt;&lt;span style=&quot;background-color: transparent; white-space-collapse: preserve;&quot;&gt;+ &lt;/span&gt;&lt;span style=&quot;background-color: transparent; white-space-collapse: preserve;&quot;&gt;get_publication_date()&lt;/span&gt;&lt;/font&gt;&lt;/div&gt;&lt;div style=&quot;&quot;&gt;&lt;font face=&quot;Helvetica&quot; style=&quot;font-size: 12px;&quot;&gt;&lt;span style=&quot;background-color: transparent; white-space-collapse: preserve;&quot;&gt;+ &lt;/span&gt;&lt;span style=&quot;background-color: transparent; white-space-collapse: preserve;&quot;&gt;set_genre(new_genre)&lt;/span&gt;&lt;/font&gt;&lt;/div&gt;&lt;div style=&quot;&quot;&gt;&lt;font face=&quot;Helvetica&quot; style=&quot;font-size: 12px;&quot;&gt;&lt;span style=&quot;background-color: transparent; white-space-collapse: preserve;&quot;&gt;+ &lt;/span&gt;&lt;span style=&quot;background-color: transparent; white-space-collapse: preserve;&quot;&gt;get_genre()&lt;/span&gt;&lt;/font&gt;&lt;/div&gt;&lt;div style=&quot;&quot;&gt;&lt;font face=&quot;Helvetica&quot; style=&quot;font-size: 12px;&quot;&gt;&lt;span style=&quot;background-color: transparent; white-space-collapse: preserve;&quot;&gt;+ &lt;/span&gt;&lt;span style=&quot;background-color: transparent; white-space-collapse: preserve;&quot;&gt;set_price(new_price)&lt;/span&gt;&lt;/font&gt;&lt;/div&gt;&lt;div style=&quot;&quot;&gt;&lt;font face=&quot;Helvetica&quot; style=&quot;font-size: 12px;&quot;&gt;&lt;span style=&quot;background-color: transparent; white-space-collapse: preserve;&quot;&gt;+ &lt;/span&gt;&lt;span style=&quot;background-color: transparent; white-space-collapse: preserve;&quot;&gt;get_price()&lt;/span&gt;&lt;/font&gt;&lt;/div&gt;" style="rounded=0;whiteSpace=wrap;html=1;align=left;" vertex="1" parent="gBozBJxobV5QFHehTq0j-1">
          <mxGeometry y="120" width="200" height="170" as="geometry" />
        </mxCell>
        <mxCell id="gBozBJxobV5QFHehTq0j-5" value="" style="swimlane;startSize=0;" vertex="1" parent="1">
          <mxGeometry x="370" y="120" width="200" height="260" as="geometry" />
        </mxCell>
        <mxCell id="gBozBJxobV5QFHehTq0j-6" value="Customer" style="rounded=0;whiteSpace=wrap;html=1;" vertex="1" parent="gBozBJxobV5QFHehTq0j-5">
          <mxGeometry width="200" height="30" as="geometry" />
        </mxCell>
        <mxCell id="gBozBJxobV5QFHehTq0j-7" value="# name: String&lt;div&gt;# contact_info: Integer&lt;/div&gt;&lt;div&gt;# shopping_cart: ShoppingCart&lt;/div&gt;" style="rounded=0;whiteSpace=wrap;html=1;align=left;" vertex="1" parent="gBozBJxobV5QFHehTq0j-5">
          <mxGeometry y="30" width="200" height="60" as="geometry" />
        </mxCell>
        <mxCell id="gBozBJxobV5QFHehTq0j-8" value="&lt;span style=&quot;&quot; id=&quot;docs-internal-guid-0524c596-7fff-9ad3-25b6-cd9ffc0817da&quot;&gt;&lt;span style=&quot;background-color: transparent; font-variant-numeric: normal; font-variant-east-asian: normal; font-variant-alternates: normal; font-variant-position: normal; vertical-align: baseline; white-space-collapse: preserve;&quot;&gt;&lt;font face=&quot;Helvetica&quot; style=&quot;font-size: 12px;&quot;&gt;+ create_account(name, contact_info)&lt;/font&gt;&lt;/span&gt;&lt;/span&gt;&lt;div style=&quot;&quot;&gt;&lt;font style=&quot;font-size: 12px;&quot;&gt;&lt;span style=&quot;background-color: transparent; font-variant-numeric: normal; font-variant-east-asian: normal; font-variant-alternates: normal; font-variant-position: normal; vertical-align: baseline; white-space-collapse: preserve;&quot;&gt;+ &lt;/span&gt;&lt;span style=&quot;background-color: transparent; white-space-collapse: preserve;&quot;&gt;set_name(new_name)&lt;/span&gt;&lt;/font&gt;&lt;/div&gt;&lt;div style=&quot;&quot;&gt;&lt;font face=&quot;Helvetica&quot; style=&quot;font-size: 12px;&quot;&gt;&lt;span style=&quot;background-color: transparent; white-space-collapse: preserve;&quot;&gt;+ &lt;/span&gt;&lt;span style=&quot;background-color: transparent; white-space-collapse: preserve;&quot;&gt;get_name()&lt;/span&gt;&lt;/font&gt;&lt;/div&gt;&lt;div style=&quot;&quot;&gt;&lt;font face=&quot;Helvetica&quot; style=&quot;font-size: 12px;&quot;&gt;&lt;span style=&quot;background-color: transparent; white-space-collapse: preserve;&quot;&gt;+ &lt;/span&gt;&lt;span style=&quot;background-color: transparent; white-space-collapse: preserve;&quot;&gt;set_contact_info(new_contact)&lt;/span&gt;&lt;/font&gt;&lt;/div&gt;&lt;div style=&quot;&quot;&gt;&lt;font face=&quot;Helvetica&quot; style=&quot;font-size: 12px;&quot;&gt;&lt;span style=&quot;background-color: transparent; white-space-collapse: preserve;&quot;&gt;+ &lt;/span&gt;&lt;span style=&quot;background-color: transparent; white-space-collapse: preserve;&quot;&gt;get_contact_info()&lt;/span&gt;&lt;/font&gt;&lt;/div&gt;&lt;div style=&quot;&quot;&gt;&lt;font face=&quot;Helvetica&quot; style=&quot;font-size: 12px;&quot;&gt;&lt;span style=&quot;background-color: transparent; white-space-collapse: preserve;&quot;&gt;+ &lt;/span&gt;&lt;span style=&quot;background-color: transparent; white-space-collapse: preserve;&quot;&gt;set_shopping_cart(new_cart)&lt;/span&gt;&lt;/font&gt;&lt;/div&gt;&lt;div style=&quot;&quot;&gt;&lt;table style=&quot;background-color: initial; border: none; border-collapse: collapse;&quot;&gt;&lt;colgroup&gt;&lt;col width=&quot;151&quot;&gt;&lt;/colgroup&gt;&lt;tbody&gt;&lt;tr style=&quot;height:22.75pt&quot;&gt;&lt;td style=&quot;vertical-align:top;padding:5pt 5pt 5pt 5pt;overflow:hidden;overflow-wrap:break-word;&quot;&gt;&lt;p style=&quot;line-height:1.38;margin-top:0pt;margin-bottom:0pt;&quot; dir=&quot;ltr&quot;&gt;&lt;span style=&quot;background-color: transparent; white-space-collapse: preserve;&quot;&gt;+ get_shopping_cart()&lt;/span&gt;&lt;/p&gt;&lt;/td&gt;&lt;/tr&gt;&lt;/tbody&gt;&lt;/table&gt;&lt;/div&gt;&lt;span style=&quot;&quot; id=&quot;docs-internal-guid-84015591-7fff-473b-430e-a53e8fe508b6&quot;&gt;&lt;br&gt;&lt;/span&gt;" style="rounded=0;whiteSpace=wrap;html=1;align=left;" vertex="1" parent="gBozBJxobV5QFHehTq0j-5">
          <mxGeometry y="90" width="200" height="170" as="geometry" />
        </mxCell>
        <mxCell id="MPH6QD4ilr39yuGUfYMB-1" value="" style="swimlane;startSize=0;" vertex="1" parent="1">
          <mxGeometry x="620" y="120" width="250" height="230" as="geometry" />
        </mxCell>
        <mxCell id="MPH6QD4ilr39yuGUfYMB-2" value="VIPCustomer" style="rounded=0;whiteSpace=wrap;html=1;" vertex="1" parent="MPH6QD4ilr39yuGUfYMB-1">
          <mxGeometry width="250" height="30" as="geometry" />
        </mxCell>
        <mxCell id="MPH6QD4ilr39yuGUfYMB-5" value="" style="edgeStyle=orthogonalEdgeStyle;rounded=0;orthogonalLoop=1;jettySize=auto;html=1;" edge="1" parent="MPH6QD4ilr39yuGUfYMB-1" source="MPH6QD4ilr39yuGUfYMB-3" target="MPH6QD4ilr39yuGUfYMB-4">
          <mxGeometry relative="1" as="geometry" />
        </mxCell>
        <mxCell id="MPH6QD4ilr39yuGUfYMB-3" value="- membership_level: String&lt;div&gt;- extra_discount: Float&lt;/div&gt;" style="rounded=0;whiteSpace=wrap;html=1;align=left;" vertex="1" parent="MPH6QD4ilr39yuGUfYMB-1">
          <mxGeometry y="30" width="250" height="50" as="geometry" />
        </mxCell>
        <mxCell id="MPH6QD4ilr39yuGUfYMB-4" value="&lt;span style=&quot;&quot; id=&quot;docs-internal-guid-84015591-7fff-473b-430e-a53e8fe508b6&quot;&gt;&lt;span class=&quot;hljs-addition&quot;&gt;+ VIPCustomer(name: String, contact_info: String, membership_level: String, extra_discount: Float)&lt;/span&gt;&lt;br/&gt;&lt;span class=&quot;hljs-addition&quot;&gt;+ get_membership_level(): String&lt;/span&gt;&lt;br/&gt;&lt;span class=&quot;hljs-addition&quot;&gt;+ set_membership_level(level: String): None&lt;/span&gt;&lt;br/&gt;&lt;span class=&quot;hljs-addition&quot;&gt;+ get_extra_discount(): Float&lt;/span&gt;&lt;br/&gt;&lt;span class=&quot;hljs-addition&quot;&gt;+ set_extra_discount(discount: Float): None&lt;/span&gt;&lt;br/&gt;&lt;span class=&quot;hljs-addition&quot;&gt;+ apply_loyalty_discount(amount: Float): Float&lt;/span&gt;&lt;/span&gt;" style="rounded=0;whiteSpace=wrap;html=1;align=left;" vertex="1" parent="MPH6QD4ilr39yuGUfYMB-1">
          <mxGeometry y="80" width="250" height="150" as="geometry" />
        </mxCell>
      </root>
    </mxGraphModel>
  </diagram>
</mxfile>
